<svg
      viewBox="0 0 369.7695137611495 76.7285885052012"
      height="60px"
      width="200px"
      style="width: 200px; height: 60px; cursor: pointer"
    >
      <defs id="SvgjsDefs1536"></defs>
      <g
        id="SvgjsG1537"
        featurekey="hmhgWD-0"
        transform="matrix(1.0632116627295005,0,0,1.0632116627295005,-6.545339510070943,-2.7963213305194046)"
        fill="#ff471f"
      >
        <g
          xmlns="http://www.w3.org/2000/svg"
          transform="translate(0,-952.36218)"
        >
          <path
            style="
              text-indent: 0;
              text-transform: none;
              direction: ltr;
              block-progression: tb;
              baseline-shift: baseline;
              color: #000;
              enable-background: accumulate;
            "
            d="m 53.593797,977.56534 -13,47.99996 5.8124,1.5937 13,-47.99991 -5.8124,-1.59375 z m -20.4688,3.4375 -23.9999995,18.99996 -2.9688,2.375 2.9688,2.3438 23.9999995,19 3.75,-4.7188 -21.031199,-16.625 21.031199,-16.65622 -3.75,-4.71875 z m 33.750001,0 -3.750001,4.71875 21.031206,16.65621 -21.031206,16.625 3.750001,4.7188 24.000004,-19 2.968801,-2.3438 -2.968801,-2.375 -24.000004,-18.99996 z"
            fill="#ff471f"
            fill-opacity="1"
            stroke="none"
            marker="none"
            visibility="visible"
            display="inline"
            overflow="visible"
          ></path>
        </g>
      </g>
      <g
        id="SvgjsG1538"
        featurekey="1RRcwp-0"
        transform="matrix(2.6030970751206333,0,0,2.6030970751206333,111.28195601730812,16.151524354760415)"
        fill="#000"
      >
        <path
          d="M5.44 20.2 c-1.28 0 -2.48 -0.5 -3.38 -1.38 l-0.02 -0.02 c-0.88 -0.9 -1.38 -2.1 -1.38 -3.38 s0.5 -2.5 1.38 -3.4 c0.9 -0.88 2.1 -1.38 3.4 -1.38 c1.32 0 2.52 0.48 3.38 1.38 c0.2 0.2 0.36 0.38 0.5 0.56 l0.24 0.36 l-1.96 1.46 l-0.28 -0.38 c-0.48 -0.64 -1.18 -1.04 -1.88 -1.04 c-1.26 0 -2.34 1.12 -2.34 2.44 s1.08 2.44 2.34 2.44 c0.7 0 1.4 -0.4 1.88 -1.08 l0.26 -0.36 l2.04 1.46 l-0.3 0.38 c-0.04 0.06 -0.1 0.12 -0.16 0.18 c-0.1 0.12 -0.22 0.26 -0.34 0.38 c-0.88 0.88 -2.08 1.38 -3.38 1.38 z M15.36 20.22 c-1.24 0 -2.46 -0.5 -3.4 -1.4 c-0.9 -0.94 -1.4 -2.16 -1.4 -3.4 c0 -1.26 0.5 -2.48 1.4 -3.4 c0.92 -0.88 2.12 -1.38 3.4 -1.38 c1.32 0 2.52 0.5 3.38 1.38 c0.92 0.92 1.42 2.12 1.42 3.4 s-0.5 2.48 -1.42 3.4 c-0.9 0.9 -2.1 1.4 -3.38 1.4 z M15.36 12.92 c-1.34 0 -2.44 1.12 -2.44 2.5 s1.1 2.5 2.44 2.5 c1.36 0 2.46 -1.12 2.46 -2.5 s-1.1 -2.5 -2.46 -2.5 z M26.3 20.18 c-1.26 0 -2.46 -0.48 -3.38 -1.38 c-0.9 -0.92 -1.4 -2.12 -1.4 -3.38 s0.5 -2.46 1.4 -3.38 c0.9 -0.9 2.1 -1.38 3.38 -1.38 c0.84 0 1.6 0.3 2.26 0.9 l0.1 0.08 l0 -6.32 l2.42 0 l0 14.68 l-2.42 0 l0 -0.72 l-0.1 0.1 c-0.72 0.7 -1.54 0.8 -2.26 0.8 z M26.3 13 c-1.28 0 -2.36 1.12 -2.36 2.42 c0 1.32 1.08 2.42 2.36 2.42 s2.36 -1.1 2.36 -2.42 c0 -1.3 -1.08 -2.42 -2.36 -2.42 z M37.28 20.22 l-0.02 0 c-0.58 0 -1.18 -0.14 -1.74 -0.4 c-0.52 -0.22 -1 -0.58 -1.44 -1.04 c-0.7 -0.76 -1.12 -1.76 -1.22 -2.8 c-0.02 -0.18 -0.04 -0.36 -0.04 -0.56 c0 -0.4 0.06 -0.82 0.16 -1.24 c0.18 -0.8 0.56 -1.54 1.1 -2.1 c0.4 -0.44 0.86 -0.78 1.44 -1.06 c0.54 -0.26 1.14 -0.38 1.76 -0.38 c0.64 0 1.22 0.12 1.76 0.38 c0.6 0.28 1.08 0.64 1.44 1.06 c0.52 0.56 0.92 1.28 1.12 2.1 c0.1 0.38 0.14 0.78 0.14 1.24 l0 0.46 l-6.72 0 l0.02 0.14 c0.26 1.24 1.2 2.14 2.24 2.14 l0.02 0 c0.58 -0.04 1.22 -0.4 1.6 -0.72 l0.22 -0.18 l1.66 1.44 l-0.3 0.26 c-0.22 0.2 -0.5 0.44 -0.8 0.6 l-0.02 0 c-0.72 0.42 -1.5 0.64 -2.38 0.66 z M37.28 12.719999999999999 c-0.78 0 -1.56 0.54 -1.98 1.38 l-0.08 0.16 l4.14 0 l-0.08 -0.16 c-0.46 -0.86 -1.22 -1.38 -2 -1.38 z M52.36 20.2 c-1.28 0 -2.48 -0.5 -3.38 -1.38 l-0.02 -0.02 c-0.88 -0.9 -1.38 -2.1 -1.38 -3.38 s0.5 -2.5 1.38 -3.4 c0.9 -0.88 2.1 -1.38 3.4 -1.38 c1.32 0 2.52 0.48 3.38 1.38 c0.2 0.2 0.36 0.38 0.5 0.56 l0.24 0.36 l-1.96 1.46 l-0.28 -0.38 c-0.48 -0.64 -1.18 -1.04 -1.88 -1.04 c-1.26 0 -2.34 1.12 -2.34 2.44 s1.08 2.44 2.34 2.44 c0.7 0 1.4 -0.4 1.88 -1.08 l0.26 -0.36 l2.04 1.46 l-0.3 0.38 c-0.04 0.06 -0.1 0.12 -0.16 0.18 c-0.1 0.12 -0.22 0.26 -0.34 0.38 c-0.88 0.88 -2.08 1.38 -3.38 1.38 z M62.08 20.18 c-1.26 0 -2.46 -0.48 -3.38 -1.38 c-0.9 -0.92 -1.4 -2.12 -1.4 -3.38 s0.5 -2.46 1.4 -3.38 c0.9 -0.9 2.1 -1.38 3.38 -1.38 c0.84 0 1.6 0.3 2.26 0.9 l0.1 0.08 l0 -0.8 l2.42 0 l0 9.16 l-2.42 0 l0 -0.72 l-0.1 0.1 c-0.72 0.7 -1.54 0.8 -2.26 0.8 z M62.08 13 c-1.28 0 -2.36 1.12 -2.36 2.42 c0 1.32 1.08 2.42 2.36 2.42 s2.36 -1.1 2.36 -2.42 c0 -1.3 -1.08 -2.42 -2.36 -2.42 z M72.71999999999998 20.08 c-0.28 0 -0.58 -0.04 -0.94 -0.1 c-1 -0.2 -1.94 -0.64 -2.68 -1.3 l-0.3 -0.24 l1.5 -1.66 l0.28 0.26 c0.88 0.74 1.6 0.88 2.06 0.88 c0.34 0 0.58 -0.04 0.82 -0.16 c0.3 -0.12 0.44 -0.32 0.44 -0.6 c0 -0.24 -0.14 -0.54 -1.32 -0.74 c-1.08 -0.22 -1.76 -0.44 -2.08 -0.62 c-0.42 -0.24 -0.76 -0.56 -1 -0.96 s-0.36 -0.84 -0.36 -1.34 c0 -0.52 0.16 -1.02 0.48 -1.48 c0.26 -0.38 0.64 -0.68 1.2 -0.96 c0.46 -0.22 0.98 -0.32 1.6 -0.32 c0.22 0 0.44 0.02 0.64 0.04 c0.88 0.14 1.76 0.52 2.48 1.08 l0.3 0.24 l-1.42 1.64 l-0.28 -0.22 c-0.7 -0.56 -1.3 -0.66 -1.66 -0.66 c-0.26 0 -0.5 0.04 -0.72 0.14 c-0.26 0.14 -0.4 0.36 -0.4 0.5 c0 0.28 0.2 0.48 1.24 0.72 c1.36 0.32 1.8 0.48 2.08 0.6 c0.56 0.32 0.8 0.58 1 0.84 c0.3 0.42 0.44 0.94 0.44 1.5 c0 0.58 -0.16 1.1 -0.46 1.52 s-0.7 0.78 -1.28 1.06 c-0.46 0.22 -1.06 0.34 -1.66 0.34 z M84.17999999999999 20 l-2.4 0 c-0.88 0 -1.7 -0.34 -2.3 -0.94 c-0.62 -0.62 -0.94 -1.42 -0.94 -2.3 l0 -3.8 l-1.28 0 l0 -2.06 l1.28 0 l0 -3.6 l2.38 0 l0 3.6 l2.66 0 l0 2.06 l-2.66 0 l0 3.76 c0 0.5 0.44 0.96 0.88 0.96 l1.74 0 z M88.39999999999999 20 l-2.6 0 l0 -14.68 l2.6 0 l0 14.68 z M94.83999999999999 20.22 l-0.02 0 c-0.58 0 -1.18 -0.14 -1.74 -0.4 c-0.52 -0.22 -1 -0.58 -1.44 -1.04 c-0.7 -0.76 -1.12 -1.76 -1.22 -2.8 c-0.02 -0.18 -0.04 -0.36 -0.04 -0.56 c0 -0.4 0.06 -0.82 0.16 -1.24 c0.18 -0.8 0.56 -1.54 1.1 -2.1 c0.4 -0.44 0.86 -0.78 1.44 -1.06 c0.54 -0.26 1.14 -0.38 1.76 -0.38 c0.64 0 1.22 0.12 1.76 0.38 c0.6 0.28 1.08 0.64 1.44 1.06 c0.52 0.56 0.92 1.28 1.12 2.1 c0.1 0.38 0.14 0.78 0.14 1.24 l0 0.46 l-6.72 0 l0.02 0.14 c0.26 1.24 1.2 2.14 2.24 2.14 l0.02 0 c0.58 -0.04 1.22 -0.4 1.6 -0.72 l0.22 -0.18 l1.66 1.44 l-0.3 0.26 c-0.22 0.2 -0.5 0.44 -0.8 0.6 l-0.02 0 c-0.72 0.42 -1.5 0.64 -2.38 0.66 z M94.83999999999999 12.719999999999999 c-0.78 0 -1.56 0.54 -1.98 1.38 l-0.08 0.16 l4.14 0 l-0.08 -0.16 c-0.46 -0.86 -1.22 -1.38 -2 -1.38 z"
        ></path>
      </g>
    </svg>