<svg
      viewBox="0 0 200 115.0247574371883"
      height="60"
      width="200"
      style="width: 200px; height: 60px; cursor: pointer"
    >
      <defs id="SvgjsDefs1551">
        <linearGradient id="SvgjsLinearGradient1556">
          <stop id="SvgjsStop1557" stop-color="#51504f" offset="0"></stop>
          <stop id="SvgjsStop1558" stop-color="#939598" offset="0.5"></stop>
          <stop id="SvgjsStop1559" stop-color="#51504f" offset="1"></stop>
        </linearGradient>
        <linearGradient id="SvgjsLinearGradient1560">
          <stop id="SvgjsStop1561" stop-color="#51504f" offset="0"></stop>
          <stop id="SvgjsStop1562" stop-color="#939598" offset="0.5"></stop>
          <stop id="SvgjsStop1563" stop-color="#51504f" offset="1"></stop>
        </linearGradient>
      </defs>
      <g
        id="SvgjsG1552"
        featurekey="symbolFeature-0"
        transform="matrix(1.4517976279409213,0,0,1.4517976279409213,28.06244907961794,-36.58992570239359)"
        fill="url(#SvgjsLinearGradient1556)"
      >
        <g
          xmlns="http://www.w3.org/2000/svg"
          transform="translate(0,-952.36218)"
        >
          <path
            style="
              text-indent: 0;
              text-transform: none;
              direction: ltr;
              block-progression: tb;
              baseline-shift: baseline;
              color: ;
              enable-background: accumulate;
            "
            d="m 53.593797,977.56534 -13,47.99996 5.8124,1.5937 13,-47.99991 -5.8124,-1.59375 z m -20.4688,3.4375 -23.9999995,18.99996 -2.9688,2.375 2.9688,2.3438 23.9999995,19 3.75,-4.7188 -21.031199,-16.625 21.031199,-16.65622 -3.75,-4.71875 z m 33.750001,0 -3.750001,4.71875 21.031206,16.65621 -21.031206,16.625 3.750001,4.7188 24.000004,-19 2.968801,-2.3438 -2.968801,-2.375 -24.000004,-18.99996 z"
            fill="url(#SvgjsLinearGradient1556)"
            fill-opacity="1"
            stroke="none"
            marker="none"
            visibility="visible"
            display="inline"
            overflow="visible"
          ></path>
        </g>
      </g>
      <g
        id="SvgjsG1553"
        featurekey="nameFeature-0"
        transform="matrix(0.847745004884145,0,0,0.847745004884145,-2.7466952387364727,80.77585794631263)"
        fill="url(#SvgjsLinearGradient1560)"
      >
        <path
          d="M16.28 30.759999999999998 l0 -1.24 c0 -0.2 0.16 -0.36 0.36 -0.36 l4.56 0 c0.2 0 0.36 0.16 0.36 0.36 l0 2.52 c0 5.88 -3.16 8.36 -9.12 8.36 c-5.56 0 -9.2 -2.2 -9.2 -8.36 l0 -10.52 c0 -5.92 3.24 -8.28 9.2 -8.28 c5.64 0 9.12 2.16 9.12 8.28 l0 0.84 c0 0.2 -0.16 0.36 -0.36 0.36 l-4.6 0 c-0.2 0 -0.36 -0.16 -0.36 -0.36 l0 -0.64 c0 -2.2 -1.64 -3.12 -3.6 -3.12 l-0.48 0 c-1.32 0 -2.2 0.36 -2.8 1.16 c-0.56 0.76 -0.76 1.76 -0.76 3.08 l0 7.92 c0 3.48 1.96 4.24 3.56 4.24 l0.48 0 c2.52 0 3.56 -1.68 3.64 -4.24 z M12.36 15.719999999999999 c-4.28 0 -6.76 1.52 -6.76 6.4 l0 9.64 c0 4.44 2.28 6.08 6.76 6.08 c4.2 0 6.72 -1.52 6.72 -6.12 c0 -0.32 -0.48 -0.32 -0.48 0 c0 4.04 -2.2 5.68 -6.24 5.68 c-3.92 0 -6.32 -1.36 -6.32 -5.64 l0 -9.64 c0 -4.16 1.96 -5.96 6.32 -5.96 c5.68 0 5.88 3.6 5.88 4 c0 0.36 0.56 0.4 0.56 0 c0 -3.32 -3.36 -4.44 -6.44 -4.44 z M37 13.239999999999998 c3.44 0 5.84 0.76 7.36 2.4 c1.2 1.32 1.76 3.2 1.76 5.88 l0 10.52 c0 2.76 -0.56 4.68 -1.76 5.96 c-1.56 1.6 -3.92 2.4 -7.36 2.4 c-3.56 0 -5.88 -0.8 -7.4 -2.4 c-1.16 -1.28 -1.8 -3.2 -1.8 -5.96 l0 -10.52 c0 -2.68 0.64 -4.56 1.8 -5.92 c1.56 -1.6 3.92 -2.36 7.4 -2.36 z M40.8 30.84 l0 -8 c0 -3.52 -1.88 -4.24 -3.6 -4.24 l-0.48 0 c-2.56 0 -3.56 1.64 -3.56 4.24 l0 8 c0 3.52 1.88 4.28 3.56 4.28 l0.48 0 c2.56 0 3.56 -1.72 3.6 -4.28 z M30.32 21.8 l0 9.92 c0 1.88 0.48 3.44 1.6 4.6 c1.04 1.04 2.64 1.6 4.6 1.6 l1.04 0 c3.76 0 6.2 -2.4 6.2 -6.2 l0 -9.92 c0 -4.08 -2.16 -6.28 -6.2 -6.28 l-1.04 0 c-4.08 0 -6.2 2.2 -6.2 6.28 z M37.56 37.4 l-1.04 0 c-1.88 0 -3.28 -0.48 -4.28 -1.48 s-1.52 -2.4 -1.52 -4.2 l0 -9.92 c0 -3.8 2.04 -5.8 5.8 -5.8 l1.04 0 c3.8 0 5.68 1.96 5.68 5.8 l0 9.92 c0 1.68 -0.52 3.2 -1.6 4.24 c-1.04 0.88 -2.44 1.44 -4.08 1.44 z M63.44 13.600000000000001 c2.72 0 4.76 0.76 6.12 2.24 c1.2 1.32 1.8 3.28 1.8 5.68 l0 10.6 c0 4.84 -2.8 7.88 -7.92 7.88 l-10 0 c-0.2 0 -0.32 -0.16 -0.32 -0.36 l0 -25.68 c0 -0.2 0.12 -0.36 0.32 -0.36 l10 0 z M66.12 30.92 l0 -8.2 c0 -2.52 -1.32 -4.12 -4.12 -4.12 l-3.6 0 l0 16.4 l3.6 0 c2.4 0 4.12 -1.56 4.12 -4.08 z M55.56 16.04 l0 21.52 c0 0.16 0.16 0.2 0.24 0.2 l6.52 0 c4.6 0 6.68 -2.76 6.68 -5.32 l0 -10.24 c0 -4.24 -2.24 -6.4 -6.8 -6.4 l-6.4 0 c-0.08 0 -0.24 0.04 -0.24 0.24 z M68.52 22.2 l0 10.24 c0 3.2 -3.2 4.88 -6.2 4.88 l-6.28 0 l0 -21 l6.16 0 c4.2 0 6.32 1.88 6.32 5.88 z M78.67999999999999 40 c-0.2 0 -0.32 -0.16 -0.32 -0.36 l0 -25.68 c0 -0.2 0.12 -0.36 0.32 -0.36 l13.6 0 c0.2 0 0.36 0.16 0.36 0.36 l0 4.28 c0 0.2 -0.16 0.36 -0.36 0.36 l-8.64 0 l0 5.44 l6.72 0 c0.2 0 0.32 0.16 0.32 0.36 l0 4.36 c0 0.2 -0.12 0.36 -0.32 0.36 l-6.72 0 l0 5.88 l8.64 0 c0.2 0 0.36 0.16 0.36 0.36 l0 4.28 c0 0.2 -0.16 0.36 -0.36 0.36 l-13.6 0 z M80.67999999999999 16.12 l0 21.28 c0 0.24 0.16 0.32 0.32 0.32 l9.2 0 c0.36 0 0.28 -0.48 0 -0.48 l-9 0 l0 -10.44 l7.36 0 c0.24 0 0.24 -0.56 0 -0.56 l-7.36 0 l0 -9.92 l9 0 c0.28 0 0.36 -0.52 0 -0.52 l-9.2 0 c-0.16 0 -0.32 0.12 -0.32 0.32 z M126.88 30.759999999999998 l0 -1.24 c0 -0.2 0.16 -0.36 0.36 -0.36 l4.56 0 c0.2 0 0.36 0.16 0.36 0.36 l0 2.52 c0 5.88 -3.16 8.36 -9.12 8.36 c-5.56 0 -9.2 -2.2 -9.2 -8.36 l0 -10.52 c0 -5.92 3.24 -8.28 9.2 -8.28 c5.64 0 9.12 2.16 9.12 8.28 l0 0.84 c0 0.2 -0.16 0.36 -0.36 0.36 l-4.6 0 c-0.2 0 -0.36 -0.16 -0.36 -0.36 l0 -0.64 c0 -2.2 -1.64 -3.12 -3.6 -3.12 l-0.48 0 c-1.32 0 -2.2 0.36 -2.8 1.16 c-0.56 0.76 -0.76 1.76 -0.76 3.08 l0 7.92 c0 3.48 1.96 4.24 3.56 4.24 l0.48 0 c2.52 0 3.56 -1.68 3.64 -4.24 z M122.96 15.719999999999999 c-4.28 0 -6.76 1.52 -6.76 6.4 l0 9.64 c0 4.44 2.28 6.08 6.76 6.08 c4.2 0 6.72 -1.52 6.72 -6.12 c0 -0.32 -0.48 -0.32 -0.48 0 c0 4.04 -2.2 5.68 -6.24 5.68 c-3.92 0 -6.32 -1.36 -6.32 -5.64 l0 -9.64 c0 -4.16 1.96 -5.96 6.32 -5.96 c5.68 0 5.88 3.6 5.88 4 c0 0.36 0.56 0.4 0.56 0 c0 -3.32 -3.36 -4.44 -6.44 -4.44 z M143.92 13.84 c0.04 -0.12 0.12 -0.24 0.28 -0.24 l4.96 0 c0.16 0 0.24 0.12 0.28 0.24 l6.92 25.72 c0.04 0.24 -0.12 0.44 -0.36 0.44 l-4.56 0 c-0.12 0 -0.24 -0.08 -0.28 -0.24 l-1.56 -5.6 l-5.84 0 l-1.52 5.6 c-0.04 0.16 -0.12 0.24 -0.28 0.24 l-4.6 0 c-0.24 0 -0.4 -0.2 -0.36 -0.44 z M145.04 29.2 l3.32 0 l-1.72 -6.04 z M151.2 31.560000000000002 l1.84 6 c0.08 0.24 0.52 0.2 0.4 -0.12 l-6.4 -21.28 c-0.12 -0.52 -0.8 -0.56 -0.92 0 l-6.2 21.28 c-0.12 0.28 0.32 0.4 0.44 0.16 l1.76 -6.04 l9.08 0 z M142.24 31.04 l4.36 -14.72 l4.44 14.72 l-8.8 0 z M170.95999999999998 23.8 c3.04 1.44 7 3.72 7 7.84 c0 1.2 -0.2 3.52 -1.52 5.48 c-1.48 2.2 -3.8 3.28 -7 3.28 c-3.4 0 -7.36 -1.64 -8.6 -5.36 c-0.04 -0.12 0 -0.24 0.12 -0.32 l3.68 -3.16 c0.16 -0.12 0.4 -0.12 0.52 0.08 c0.08 0.2 0.24 0.52 0.44 0.92 c0.6 1.24 2.04 2.48 3.64 2.48 c1.24 0 2.92 -0.68 2.92 -2.6 c0 -1.84 -2.52 -2.88 -4.08 -3.48 c-1.8 -0.72 -3.64 -1.64 -5.2 -3 c-1.64 -1.52 -2.44 -3.2 -2.44 -5.2 c0 -5 4.6 -7.52 8.96 -7.52 c3.44 0 6 1.8 7.68 5.36 c0.08 0.16 0 0.36 -0.12 0.44 l-3.56 2.48 c-0.16 0.08 -0.24 0.08 -0.4 -0.12 c-1.36 -1.96 -2.56 -2.88 -4.16 -2.88 c-0.84 0 -2.8 0.32 -2.8 1.8 c0 1.8 3.32 2.72 4.92 3.48 z M163.67999999999998 34.84 c1 2 3.76 3.16 6 3.16 c2.92 0 5.28 -2 5.6 -5.04 c0.4 -3.72 -2.52 -5.32 -5.4 -6.76 l-1.28 -0.56 c-2.96 -1.32 -5.12 -2.32 -5.12 -5.08 c0 -3.04 2.8 -4.44 5.56 -4.44 c2.52 0 3.84 1.48 4.52 2.4 c0.24 0.32 0.64 0.04 0.4 -0.28 c-0.68 -0.84 -2.12 -2.6 -4.92 -2.6 c-3.16 0 -6.04 1.56 -6.04 4.92 c0 3 2.4 4.16 5.44 5.56 l1.24 0.6 c3.96 1.88 5.4 3.64 5.08 6.2 c-0.6 4.08 -3.72 4.6 -5.08 4.6 c-3 0 -5 -1.8 -5.6 -2.92 c-0.2 -0.2 -0.48 0 -0.4 0.24 z M188.07999999999998 18.6 l-5.68 0 c-0.2 0 -0.36 -0.16 -0.36 -0.36 l0 -4.28 c0 -0.2 0.16 -0.36 0.36 -0.36 l16.68 0 c0.2 0 0.36 0.16 0.36 0.36 l0 4.28 c0 0.2 -0.16 0.36 -0.36 0.36 l-5.68 0 l0 21.04 c0 0.2 -0.16 0.36 -0.36 0.36 l-4.6 0 c-0.2 0 -0.36 -0.16 -0.36 -0.36 l0 -21.04 z M196.64 15.8 l-12.08 0 c-0.28 0 -0.28 0.52 0 0.52 l5.92 0 l0 21.2 c0 0.28 0.52 0.28 0.52 0 l0 -21.2 l5.64 0 c0.4 0 0.36 -0.52 0 -0.52 z M209.92000000000002 13.600000000000001 c0.2 0 0.36 0.16 0.36 0.36 l0 21 l8.64 0 c0.2 0 0.36 0.16 0.36 0.36 l0 4.32 c0 0.2 -0.16 0.36 -0.36 0.36 l-13.56 0 c-0.2 0 -0.32 -0.16 -0.32 -0.36 l0 -25.68 c0 -0.2 0.12 -0.36 0.32 -0.36 l4.56 0 z M207.44 16.04 l0 21.52 c0 0.08 0.08 0.2 0.24 0.2 l9.24 0 c0.32 0 0.32 -0.52 0 -0.52 l-9.04 0 l0 -21.2 c0 -0.28 -0.44 -0.32 -0.44 0 z M225.20000000000002 40 c-0.2 0 -0.32 -0.16 -0.32 -0.36 l0 -25.68 c0 -0.2 0.12 -0.36 0.32 -0.36 l13.6 0 c0.2 0 0.36 0.16 0.36 0.36 l0 4.28 c0 0.2 -0.16 0.36 -0.36 0.36 l-8.64 0 l0 5.44 l6.72 0 c0.2 0 0.32 0.16 0.32 0.36 l0 4.36 c0 0.2 -0.12 0.36 -0.32 0.36 l-6.72 0 l0 5.88 l8.64 0 c0.2 0 0.36 0.16 0.36 0.36 l0 4.28 c0 0.2 -0.16 0.36 -0.36 0.36 l-13.6 0 z M227.20000000000002 16.12 l0 21.28 c0 0.24 0.16 0.32 0.32 0.32 l9.2 0 c0.36 0 0.28 -0.48 0 -0.48 l-9 0 l0 -10.44 l7.36 0 c0.24 0 0.24 -0.56 0 -0.56 l-7.36 0 l0 -9.92 l9 0 c0.28 0 0.36 -0.52 0 -0.52 l-9.2 0 c-0.16 0 -0.32 0.12 -0.32 0.32 z"
        ></path>
      </g>
    </svg>